{"title":"Round Booby Blond Girl Nicely Fucked by Boyfriend Outdoor in CAR","uid":10780600,"size":308062482,"categoryP":"porn","categoryS":"other","magnet":"?xt=urn:btih:c1a90cb976b5689a5532521833959d7ef1e86456&amp;dn=Round+Booby+Blond+Girl+Nicely+Fucked+by+Boyfriend+Outdoor+in+CAR&amp;tr=udp%3A%2F%2Ftracker.openbittorrent.com%3A80&amp;tr=udp%3A%2F%2Fopen.demonii.com%3A1337&amp;tr=udp%3A%2F%2Ftracker.coppersurfer.tk%3A6969&amp;tr=udp%3A%2F%2Fexodus.desync.com%3A6969","seeders":0,"leechers":0,"uploader":"vpsr","files":1,"time":1408157093,"description":"Round Booby Blond Girl Nicely Fucked by Boyfriend Outdoor in CAR[VPSR].mp4\n\n &lt;a href=&quot;\nhttp://s25.postimg.org/jgg13o8f3/image.jpg&quot; rel=&quot;nofollow&quot; target=&quot;_NEW&quot;&gt;\nhttp://s25.postimg.org/jgg13o8f3/image.jpg&lt;/a&gt;\n\n\n &lt;a href=&quot;\nhttp://s25.postimg.org/7ful2y10f/Round_Booby_Blond_Girl_Nicely_Fucked_by_Boyfrien.jpg&quot; rel=&quot;nofollow&quot; target=&quot;_NEW&quot;&gt;\nhttp://s25.postimg.org/7ful2y10f/Round_Booby_Blond_Girl_Nicely_Fucked_by_Boyfrien.jpg&lt;/a&gt;\n\n\nFILE INFO\n\n\nGeneral\nComplete name                            : Round Booby Blond Girl Nicely Fucked by Boyfriend Outdoor in CAR[VPSR].mp4\nFormat                                   : MPEG-4\nFormat profile                           : Base Media\nCodec ID                                 : isom\nFile size                                : 294 MiB\nDuration                                 : 5mn 15s\nOverall bit rate                         : 7 819 Kbps\nWriting application                      : Lavf54.6.100\n\nVideo\nID                                       : 1\nFormat                                   : AVC\nFormat/Info                              : Advanced Video Codec\nFormat profile                           : &lt;a class=&quot;__cf_email__&quot; href=&quot;/cdn-cgi/l/email-protection&quot; data-cfemail=&quot;185579717658542c3628&quot;&gt;[email&amp;#160;protected]&lt;/a&gt;&lt;script cf-hash='f9e31' type=&quot;text/javascript&quot;&gt;\n/* &lt;![CDATA[ */!function(){try{var t=&quot;currentScript&quot;in document?document.currentScript:function(){for(var t=document.getElementsByTagName(&quot;script&quot;),e=t.length;e--;)if(t[e].getAttribute(&quot;cf-hash&quot;))return t[e]}();if(t&amp;&amp;t.previousSibling){var e,r,n,i,c=t.previousSibling,a=c.getAttribute(&quot;data-cfemail&quot;);if(a){for(e=&quot;&quot;,r=parseInt(a.substr(0,2),16),n=2;a.length-n;n+=2)i=parseInt(a.substr(n,2),16)^r,e+=String.fromCharCode(i);e=document.createTextNode(e),c.parentNode.replaceChild(e,c)}}}catch(u){}}();/* ]]&gt; */&lt;/script&gt;\nFormat settings, CABAC                   : Yes\nFormat settings, ReFrames                : 4 frames\nCodec ID                                 : avc1\nCodec ID/Info                            : Advanced Video Coding\nDuration                                 : 5mn 15s\nBit rate                                 : 7 500 Kbps\nWidth                                    : 1 440 pixels\nHeight                                   : 1 080 pixels\nDisplay aspect ratio                     : 4:3\nFrame rate mode                          : Constant\nFrame rate                               : 30.000 fps\nColor space                              : YUV\nChroma subsampling                       : 4:2:0\nBit depth                                : 8 bits\nScan type                                : Progressive\nBits/(Pixel*Frame)                       : 0.161\nStream size                              : 289 MiB (98%)\nWriting library                          : x264 core 125\n\nAudio\nID                                       : 2\nFormat                                   : AAC\nFormat/Info                              : Advanced Audio Codec\nFormat profile                           : LC\nCodec ID                                 : 40\nDuration                                 : 5mn 14s\nDuration_FirstFrame                      : 23ms\nBit rate mode                            : Constant\nBit rate                                 : 128 Kbps\nChannel(s)                               : 2 channels\nChannel positions                        : Front: L R\nSampling rate                            : 44.1 KHz\nCompression mode                         : Lossy\nStream size                              : 4.81 MiB (2%)\n\n","torrent":{"xt":"urn:btih:c1a90cb976b5689a5532521833959d7ef1e86456","amp;dn":"Round+Booby+Blond+Girl+Nicely+Fucked+by+Boyfriend+Outdoor+in+CAR","amp;tr":["udp%3A%2F%2Ftracker.openbittorrent.com%3A80","udp%3A%2F%2Fopen.demonii.com%3A1337","udp%3A%2F%2Ftracker.coppersurfer.tk%3A6969","udp%3A%2F%2Fexodus.desync.com%3A6969"],"infoHash":"c1a90cb976b5689a5532521833959d7ef1e86456","infoHashBuffer":{"type":"Buffer","data":[193,169,12,185,118,181,104,154,85,50,82,24,51,149,157,126,241,232,100,86]},"announce":[],"urlList":[]}}